<svg width="187" height="40" viewBox="0 0 187 40" fill="none" xmlns="http://www.w3.org/2000/svg">
<g filter="url(#filter0_d_1_638)">
<path d="M4 16.0773C4 7.2657 10.3495 0.309176 20.0286 0.309176C29.7077 0.309176 36.0571 7.2657 36.0571 16.0773C36.0571 19.2464 35.2054 22.1836 33.8116 24.5797L36.5217 26.8985L32.1081 32L29.1656 29.372C26.6878 30.9179 23.5905 31.8454 20.106 31.8454C10.3495 31.9227 4 25.0435 4 16.0773ZM11.7433 16.0773C11.7433 21.1787 15.1503 24.9662 19.9511 24.9662C21.1126 24.9662 22.2741 24.7343 23.2033 24.3478L20.648 22.1063L24.9843 17.0821L27.617 19.401C27.9267 18.3961 28.159 17.314 28.159 16.1546C28.159 11.1304 24.8294 7.34299 19.9511 7.34299C15.0729 7.34299 11.7433 11.0531 11.7433 16.0773Z" fill="#316FEA"/>
<path d="M45.9671 21.9517C46.122 23.9613 48.1352 25.7391 50.7679 25.7391C53.4781 25.7391 55.1041 23.9614 55.5687 23.2657L60.3696 26.9758C59.7501 28.2899 56.5754 32 50.6131 32C43.1021 32 38.4561 26.8213 38.4561 20.0966C38.4561 13.372 43.0246 8.03865 49.6839 8.03865C56.9625 8.03865 60.9116 12.6763 60.9116 20.4831C60.9116 20.9469 60.9116 21.4106 60.8342 21.9517H45.9671ZM46.1994 17.3913H53.6329C53.5555 15.5362 52.1617 13.9903 49.9162 13.9903C47.5157 13.9903 46.3542 15.7681 46.1994 17.3913Z" fill="#316FEA"/>
<path d="M76.3193 18.3961C76.3193 16.2319 75.0803 15.1498 73.2994 15.1498C71.2861 15.1498 70.1246 16.6184 70.1246 18.3961V32H62.846V9.19807H69.9698V11.5169C70.8215 10.2029 72.8348 8.57971 75.6998 8.57971C82.8236 8.57971 83.5205 14.686 83.5205 19.3237V32H76.2418V18.3961H76.3193Z" fill="#316FEA"/>
<path d="M102.645 24.0386L104.581 29.9903C103.032 31.0725 100.709 32 97.8441 32C90.5654 32 85.4549 27.0531 85.4549 20.0193C85.4549 12.9855 90.7977 8.03865 97.8441 8.03865C100.787 8.03865 103.032 8.96618 104.658 10.1256L102.722 16.2319C101.483 15.1498 99.8574 14.5314 98.1538 14.5314C94.7468 14.5314 92.811 16.9275 92.811 19.942C92.811 23.2657 95.0565 25.5845 98.4636 25.5845C100.012 25.6618 101.638 24.8889 102.645 24.0386Z" fill="#316FEA"/>
<path d="M118.983 8.03865C126.339 8.03865 131.527 13.0628 131.527 20.0193C131.527 26.8986 126.184 32 118.983 32C111.704 32 106.593 26.9758 106.593 20.0966C106.516 13.1401 111.859 8.03865 118.983 8.03865ZM118.983 25.5845C122.002 25.5845 124.248 23.2657 124.248 19.942C124.248 16.6184 121.925 14.3768 118.983 14.3768C115.963 14.3768 113.872 16.6957 113.872 20.0193C113.795 23.343 115.963 25.5845 118.983 25.5845Z" fill="#316FEA"/>
<path d="M150.883 29.6812C150.264 30.4541 148.018 32 144.689 32C138.107 32 133.461 27.0531 133.461 20.0193C133.461 12.9082 137.642 8.03865 144.302 8.03865C147.786 8.03865 149.954 9.81643 150.419 10.3575V0H157.698V31.4589H150.883V29.6812ZM145.695 14.3768C142.753 14.3768 140.74 16.6957 140.74 20.0193C140.74 23.4203 142.753 25.5845 145.695 25.5845C148.87 25.5845 150.651 23.0338 150.651 20.0193C150.574 16.4638 148.56 14.3768 145.695 14.3768Z" fill="#316FEA"/>
<path d="M167.143 21.9517C167.298 23.9613 169.311 25.7391 171.944 25.7391C174.654 25.7391 176.28 23.9614 176.745 23.2657L181.545 26.9758C180.926 28.2899 177.751 32 171.789 32C164.278 32 159.632 26.8213 159.632 20.0966C159.632 13.372 164.2 8.03865 170.86 8.03865C178.138 8.03865 182.087 12.6763 182.087 20.4831C182.087 20.9469 182.087 21.4106 182.01 21.9517H167.143ZM167.375 17.3913H174.809C174.731 15.5362 173.338 13.9903 171.092 13.9903C168.692 13.9903 167.53 15.7681 167.375 17.3913Z" fill="#316FEA"/>
</g>
<defs>
<filter id="filter0_d_1_638" x="0" y="0" width="186.087" height="40" filterUnits="userSpaceOnUse" color-interpolation-filters="sRGB">
<feFlood flood-opacity="0" result="BackgroundImageFix"/>
<feColorMatrix in="SourceAlpha" type="matrix" values="0 0 0 0 0 0 0 0 0 0 0 0 0 0 0 0 0 0 127 0" result="hardAlpha"/>
<feOffset dy="4"/>
<feGaussianBlur stdDeviation="2"/>
<feComposite in2="hardAlpha" operator="out"/>
<feColorMatrix type="matrix" values="0 0 0 0 0 0 0 0 0 0 0 0 0 0 0 0 0 0 0.25 0"/>
<feBlend mode="normal" in2="BackgroundImageFix" result="effect1_dropShadow_1_638"/>
<feBlend mode="normal" in="SourceGraphic" in2="effect1_dropShadow_1_638" result="shape"/>
</filter>
</defs>
</svg>
